<svg width="12" height="10" viewBox="0 0 12 10" fill="none" xmlns="http://www.w3.org/2000/svg">
<path d="M2.46002 1.29002C2.27172 1.09641 2.01422 0.985539 1.74416 0.981788C1.47411 0.978037 1.21363 1.08172 1.02002 1.27002C0.826414 1.45833 0.715539 1.71583 0.711788 1.98588C0.708037 2.25593 0.811718 2.51641 1.00002 2.71002L3.34002 5.00002L1.00002 7.29002C0.906294 7.38298 0.831899 7.49359 0.78113 7.61544C0.730362 7.7373 0.704224 7.86801 0.704224 8.00002C0.704224 8.13203 0.730362 8.26274 0.78113 8.3846C0.831899 8.50646 0.906294 8.61706 1.00002 8.71002C1.09298 8.80375 1.20359 8.87814 1.32545 8.92891C1.4473 8.97968 1.57801 9.00582 1.71002 9.00582C1.84203 9.00582 1.97274 8.97968 2.0946 8.92891C2.21646 8.87814 2.32706 8.80375 2.42002 8.71002L5.42002 5.71002C5.51375 5.61706 5.58814 5.50646 5.63891 5.3846C5.68968 5.26274 5.71582 5.13203 5.71582 5.00002C5.71582 4.86801 5.68968 4.7373 5.63891 4.61544C5.58814 4.49359 5.51375 4.38298 5.42002 4.29002L2.46002 1.29002ZM10.96 4.29002L7.96002 1.29002C7.77172 1.10172 7.51632 0.99593 7.25002 0.99593C6.98372 0.99593 6.72833 1.10172 6.54002 1.29002C6.35172 1.47833 6.24593 1.73372 6.24593 2.00002C6.24593 2.26632 6.35172 2.52172 6.54002 2.71002L8.84002 5.00002L6.54002 7.29002C6.44629 7.38298 6.3719 7.49359 6.32113 7.61544C6.27036 7.7373 6.24422 7.86801 6.24422 8.00002C6.24422 8.13203 6.27036 8.26274 6.32113 8.3846C6.3719 8.50646 6.44629 8.61706 6.54002 8.71002C6.63299 8.80375 6.74359 8.87814 6.86545 8.92891C6.9873 8.97968 7.11801 9.00582 7.25002 9.00582C7.38203 9.00582 7.51274 8.97968 7.6346 8.92891C7.75646 8.87814 7.86706 8.80375 7.96002 8.71002L10.96 5.71002C11.0564 5.61973 11.134 5.51123 11.1882 5.3908C11.2424 5.27037 11.2723 5.14039 11.276 5.00836C11.2797 4.87633 11.2572 4.74488 11.2099 4.62158C11.1625 4.49829 11.0912 4.3856 11 4.29002H10.96Z" fill="#333333"/>
</svg>
